<svg width="246" height="67" viewBox="0 0 246 67" fill="none" xmlns="http://www.w3.org/2000/svg">
<path fill-rule="evenodd" clip-rule="evenodd" d="M6.13133 52.4107C2.24895 46.2701 0 38.9939 0 31.1914C0 23.5703 2.1456 16.4508 5.8634 10.4015C5.80618 11.0077 5.77692 11.6251 5.77692 12.254C5.77692 15.6434 6.70142 18.6772 8.55017 21.4031C10.3989 24.1051 13.1246 26.3094 16.68 28.0397C21.2783 30.1255 29.8584 31.5949 42.4679 32.4957C45.0042 32.6142 46.9477 32.7563 48.2987 32.8986C53.8925 33.3725 58.2773 34.8184 61.4535 37.2361C64.6295 39.6537 66.2176 42.735 66.2176 46.4798C66.2176 51.1967 64.0133 55.0601 59.581 58.0702C55.1723 61.0805 49.4128 62.5737 42.3258 62.5737C36.5898 62.5737 30.7828 61.4597 24.9284 59.2554C19.0739 57.0274 13.4328 53.8275 8.00498 49.6324L6.13133 52.4107Z" fill="url(#paint0_radial_8_395)"/>
<path d="M36.381 54.2202H16.2914L18.224 50.5584C18.4952 50.0836 18.7156 49.7955 18.8852 49.6937C19.0547 49.592 19.3938 49.5411 19.9024 49.5411H35.2112C35.6858 49.5411 36.0843 49.3801 36.4063 49.058C36.7284 48.7359 36.8895 48.3375 36.8895 47.8627C36.8895 47.3881 36.7284 46.9897 36.4063 46.6676C36.0843 46.3455 35.6858 46.1844 35.2112 46.1844H35.1604H23.0048C21.9876 46.1844 21.0382 46.0488 20.1566 45.7776C19.2751 45.5063 18.5037 45.0994 17.8426 44.5569C17.1814 44.0143 16.6643 43.3617 16.2914 42.5988C15.9183 41.8359 15.7319 40.9628 15.7319 39.9795C15.7319 38.9963 15.9183 38.1231 16.2914 37.3602C16.6643 36.5974 17.1814 35.9446 17.8426 35.4021C18.5037 34.8596 19.2751 34.4527 20.1566 34.1815C21.0382 33.9102 21.9876 33.7746 23.0048 33.7746H39.7377L37.8559 37.4366C37.5846 37.8773 37.3642 38.1486 37.1947 38.2503C37.0252 38.352 36.6861 38.4028 36.1775 38.4028H23.1574C22.7166 38.4028 22.3437 38.5555 22.0384 38.8606C21.7333 39.1658 21.5808 39.5387 21.5808 39.9795C21.5808 40.4203 21.7333 40.7932 22.0384 41.0984C22.3437 41.4035 22.7166 41.5562 23.1574 41.5562H36.4318C37.2794 41.5562 38.0932 41.7088 38.8731 42.0139C39.6529 42.3191 40.3226 42.7513 40.8821 43.3108C41.4415 43.8703 41.8908 44.5314 42.2299 45.2943C42.5688 46.0573 42.7384 46.9134 42.7384 47.8627C42.7384 48.8121 42.5688 49.6768 42.2299 50.4567C41.8908 51.2365 41.4415 51.9062 40.8821 52.4656C40.3226 53.025 39.6529 53.4574 38.8731 53.7625C38.0932 54.0677 37.2794 54.2202 36.4318 54.2202H36.381ZM57.1826 32.91C61.421 32.91 64.5487 33.9187 66.5662 35.9362C68.5837 37.9536 69.5924 40.6407 69.5924 43.9975C69.5924 45.6589 69.3465 47.1762 68.8549 48.5494C68.3633 49.9226 67.6088 51.0923 66.5917 52.0587C65.5745 53.025 64.286 53.771 62.7263 54.2966C61.1666 54.8221 59.3187 55.0848 57.1826 55.0848C55.0465 55.0848 53.1985 54.8221 51.6388 54.2966C50.0791 53.771 48.7908 53.025 47.7735 52.0587C46.7563 51.0923 46.002 49.9226 45.5102 48.5494C45.0186 47.1762 44.7728 45.6589 44.7728 43.9975C44.7728 40.6407 45.7816 37.9536 47.7989 35.9362C49.8164 33.9187 52.9443 32.91 57.1826 32.91ZM57.1826 50.5584C58.0642 50.5584 58.9034 50.4735 59.7001 50.304C60.4969 50.1345 61.2004 49.8124 61.8109 49.3377C62.4212 48.863 62.9128 48.2018 63.2858 47.3541C63.6587 46.5066 63.8452 45.3876 63.8452 43.9975C63.8452 42.6412 63.6587 41.5307 63.2858 40.6662C62.9128 39.8015 62.4212 39.1233 61.8109 38.6317C61.2004 38.1401 60.4969 37.8095 59.7001 37.64C58.9034 37.4704 58.0642 37.3857 57.1826 37.3857C56.3011 37.3857 55.4619 37.4704 54.665 37.64C53.8682 37.8095 53.1647 38.1401 52.5544 38.6317C51.944 39.1233 51.4524 39.8015 51.0794 40.6662C50.7064 41.5307 50.5199 42.6412 50.5199 43.9975C50.5199 45.3876 50.7064 46.5066 51.0794 47.3541C51.4524 48.2018 51.944 48.863 52.5544 49.3377C53.1647 49.8124 53.8682 50.1345 54.665 50.304C55.4619 50.4735 56.3011 50.5584 57.1826 50.5584ZM81.9004 42.7768C82.1716 42.3361 82.392 42.0647 82.5615 41.963C82.7311 41.8613 83.0702 41.8105 83.5788 41.8105H92.937L91.1569 45.2181C90.8857 45.6589 90.6653 45.9301 90.4957 46.0318C90.3262 46.1335 89.9871 46.1844 89.4785 46.1844H80.1203L81.9004 42.7768ZM97.2092 33.7746L95.3274 37.3857C95.09 37.8265 94.8781 38.0977 94.6916 38.1994C94.5052 38.3011 94.1576 38.352 93.649 38.352H80.1711C79.7982 38.352 79.493 38.4792 79.2557 38.7334C79.0183 38.9878 78.8997 39.3014 78.8997 39.6743V54.2202H72.6439V33.7746H97.2092ZM114.146 54.2202H107.89V38.352H97.2092L99.091 34.7409C99.3283 34.3002 99.5403 34.0289 99.7268 33.9272C99.9132 33.8255 100.244 33.7746 100.719 33.7746H124.877L122.995 37.3857C122.724 37.8265 122.503 38.0977 122.334 38.1994C122.164 38.3011 121.825 38.352 121.317 38.352H115.468C115.095 38.352 114.781 38.4792 114.527 38.7334C114.273 38.9878 114.146 39.3014 114.146 39.6743V54.2202ZM154.07 41.8105V52.8979C154.07 53.2709 153.952 53.5844 153.714 53.8388C153.477 54.0931 153.172 54.2202 152.799 54.2202H137.338C135.371 54.2202 133.667 53.9744 132.226 53.4827C130.785 52.9911 129.598 52.3045 128.666 51.4229C127.734 50.5414 127.038 49.4648 126.581 48.1933C126.123 46.9218 125.894 45.5232 125.894 43.9975C125.894 42.4716 126.123 41.073 126.581 39.8015C127.038 38.53 127.734 37.4534 128.666 36.5719C129.598 35.6903 130.785 35.0037 132.226 34.5121C133.667 34.0204 135.371 33.7746 137.338 33.7746H153.104L151.222 37.3857C150.951 37.8265 150.722 38.0977 150.536 38.1994C150.349 38.3011 150.019 38.352 149.544 38.352H137.948C137.202 38.352 136.49 38.4283 135.812 38.5808C135.134 38.7334 134.532 39.0131 134.006 39.42C133.481 39.827 133.065 40.4033 132.76 41.1493C132.455 41.8952 132.303 42.8446 132.303 43.9975C132.303 45.1841 132.455 46.142 132.76 46.871C133.065 47.6 133.481 48.168 134.006 48.5748C134.532 48.9817 135.134 49.2529 135.812 49.3886C136.49 49.5241 137.202 49.592 137.948 49.592L148.73 49.5411V46.1844H139.016L140.745 42.7768C141.016 42.3361 141.245 42.0647 141.432 41.963C141.618 41.8613 141.949 41.8105 142.424 41.8105H154.07ZM158.139 54.2202V33.7746H177.059C178.076 33.7746 179.034 33.9696 179.933 34.3595C180.831 34.7494 181.611 35.2749 182.272 35.9362C182.933 36.5974 183.459 37.3687 183.849 38.2503C184.239 39.1318 184.434 40.0812 184.434 41.0984C184.434 42.6581 184.001 44.0483 183.137 45.2689C182.272 46.4896 181.179 47.3711 179.856 47.9136L187.282 54.2202H179.449L172.838 48.4731H166.277L168.159 44.8112C168.43 44.3704 168.65 44.0907 168.82 43.972C168.989 43.8533 169.328 43.7939 169.837 43.7939H175.533C176.313 43.7939 176.957 43.5312 177.466 43.0057C177.975 42.4801 178.229 41.8443 178.229 41.0984C178.229 40.3525 177.975 39.7168 177.466 39.1912C176.957 38.6657 176.313 38.4028 175.533 38.4028H165.717C165.344 38.4028 165.031 38.53 164.776 38.7843C164.522 39.0386 164.395 39.3522 164.395 39.7251V54.2202H158.139ZM210.576 51.8807C210.304 51.406 210.076 51.1178 209.889 51.0161C209.703 50.9143 209.372 50.8635 208.897 50.8635H199.387L201.268 47.2016C201.54 46.7608 201.76 46.4811 201.93 46.3624C202.099 46.2437 202.438 46.1844 202.947 46.1844H207.524L203.455 38.5045L195.318 54.2202H188.299C190.198 50.6939 191.91 47.5237 193.436 44.7095C194.08 43.5227 194.716 42.3529 195.343 41.2001C195.97 40.0474 196.53 39.0046 197.022 38.0722C197.513 37.1398 197.92 36.377 198.242 35.7835C198.564 35.1902 198.759 34.8596 198.827 34.7918C199.098 34.3172 199.319 34.0289 199.488 33.9272C199.658 33.8255 199.997 33.7746 200.505 33.7746H207.524L218.764 54.2202H211.796L210.576 51.8807ZM230.564 42.7768C230.835 42.3361 231.055 42.0647 231.225 41.963C231.394 41.8613 231.733 41.8105 232.242 41.8105H241.6L239.82 45.2181C239.549 45.6589 239.328 45.9301 239.159 46.0318C238.989 46.1335 238.65 46.1844 238.142 46.1844H228.783L230.564 42.7768ZM245.872 33.7746L243.991 37.3857C243.753 37.8265 243.541 38.0977 243.355 38.1994C243.168 38.3011 242.821 38.352 242.312 38.352H228.834C228.461 38.352 228.156 38.4792 227.919 38.7334C227.682 38.9878 227.563 39.3014 227.563 39.6743V54.2202H221.307V33.7746H245.872Z" fill="white"/>
<path fill-rule="evenodd" clip-rule="evenodd" d="M70.5078 5.97147C76.1447 12.8337 79.5287 21.6175 79.5287 31.1915C79.5287 36.7613 78.3817 42.0627 76.314 46.875C76.3141 46.8381 76.3147 46.8014 76.3147 46.7644C76.3147 40.744 74.0393 35.6955 69.5123 31.5713C64.9614 27.4471 58.7988 24.9584 51.0245 24.0814C48.3935 23.7496 44.6487 23.4652 39.8371 23.1807C29.3607 22.5408 22.5583 21.0238 19.4057 18.6773C18.1733 17.7055 17.2252 16.6389 16.6327 15.5248C16.0401 14.4109 15.7319 13.1784 15.7319 11.8512C15.7319 8.46157 17.6044 5.641 21.3494 3.38934C25.118 1.13768 29.8821 0 35.6656 0C41.1644 0 46.5211 0.971689 51.7356 2.89171C56.9501 4.8352 61.9038 7.70319 66.6443 11.5192L70.5078 5.97147Z" fill="url(#paint1_radial_8_395)"/>
<path d="M221.514 65.034V63.9087H226.342C226.644 63.9087 226.875 63.832 227.038 63.6784C227.2 63.5248 227.282 63.321 227.282 63.067C227.282 62.7894 227.2 62.5811 227.038 62.4424C226.875 62.3035 226.644 62.2342 226.342 62.2342H223.383C223.082 62.2342 222.809 62.1884 222.563 62.0968C222.318 62.0053 222.112 61.8782 221.943 61.7157C221.775 61.5534 221.645 61.3599 221.553 61.1354C221.462 60.911 221.416 60.6658 221.416 60.4C221.416 60.1401 221.459 59.8994 221.545 59.678C221.63 59.4564 221.757 59.266 221.925 59.1065C222.094 58.947 222.302 58.8214 222.55 58.7299C222.798 58.6383 223.082 58.5926 223.401 58.5926H228.026V59.7179H223.401C223.141 59.7179 222.94 59.7872 222.798 59.926C222.656 60.0648 222.586 60.2583 222.586 60.5063C222.586 60.7544 222.658 60.9464 222.803 61.0823C222.947 61.2181 223.144 61.2861 223.392 61.2861H226.342C226.998 61.2861 227.496 61.4397 227.835 61.7468C228.175 62.054 228.345 62.5206 228.345 63.1467C228.345 63.4184 228.303 63.6695 228.221 63.8998C228.138 64.1302 228.014 64.3296 227.849 64.498C227.683 64.6662 227.475 64.7976 227.224 64.8921C226.973 64.9866 226.679 65.034 226.342 65.034H221.514ZM214.842 63.9087C215.137 63.9087 215.409 63.8556 215.657 63.7493C215.905 63.6428 216.119 63.4967 216.299 63.3106C216.479 63.1246 216.62 62.9016 216.72 62.6417C216.821 62.3818 216.871 62.1012 216.871 61.8C216.871 61.4988 216.821 61.2196 216.72 60.9627C216.62 60.7057 216.479 60.4857 216.299 60.3026C216.119 60.1195 215.905 59.9762 215.657 59.8729C215.409 59.7695 215.137 59.7179 214.842 59.7179H213.274C212.984 59.7179 212.717 59.7695 212.472 59.8729C212.227 59.9762 212.015 60.1195 211.838 60.3026C211.661 60.4857 211.522 60.7043 211.422 60.9582C211.321 61.2122 211.271 61.4928 211.271 61.8C211.271 62.1012 211.321 62.3818 211.422 62.6417C211.522 62.9016 211.661 63.1246 211.838 63.3106C212.015 63.4967 212.227 63.6428 212.472 63.7493C212.717 63.8556 212.984 63.9087 213.274 63.9087H214.842ZM213.274 65.034C212.825 65.034 212.41 64.9498 212.029 64.7815C211.648 64.6131 211.317 64.3827 211.036 64.0903C210.756 63.798 210.537 63.4509 210.381 63.0493C210.224 62.6476 210.146 62.2134 210.146 61.7468C210.146 61.2743 210.224 60.843 210.381 60.4532C210.537 60.0633 210.756 59.7311 211.036 59.4564C211.317 59.1818 211.648 58.9692 212.029 58.8185C212.41 58.6678 212.825 58.5926 213.274 58.5926H214.842C215.308 58.5926 215.735 58.6694 216.122 58.823C216.509 58.9765 216.841 59.1921 217.119 59.4697C217.396 59.7474 217.612 60.0796 217.766 60.4665C217.919 60.8534 217.996 61.2802 217.996 61.7468C217.996 62.2134 217.918 62.6476 217.761 63.0493C217.605 63.4509 217.386 63.798 217.105 64.0903C216.825 64.3827 216.493 64.6131 216.109 64.7815C215.725 64.9498 215.303 65.034 214.842 65.034H213.274ZM203.669 63.9087C203.958 63.9087 204.226 63.8556 204.471 63.7493C204.716 63.6428 204.929 63.4967 205.109 63.3106C205.289 63.1246 205.429 62.9016 205.53 62.6417C205.63 62.3818 205.68 62.1012 205.68 61.8C205.68 61.4988 205.63 61.2196 205.53 60.9627C205.429 60.7057 205.289 60.4857 205.109 60.3026C204.929 60.1195 204.716 59.9762 204.471 59.8729C204.226 59.7695 203.958 59.7179 203.669 59.7179H201.055V63.9087H203.669ZM199.939 65.034V58.5926H203.669C204.124 58.5926 204.543 58.6694 204.927 58.823C205.311 58.9765 205.642 59.1921 205.92 59.4697C206.197 59.7474 206.414 60.0796 206.571 60.4665C206.727 60.8534 206.806 61.2802 206.806 61.7468C206.806 62.2134 206.727 62.6476 206.571 63.0493C206.414 63.4509 206.197 63.798 205.92 64.0903C205.642 64.3827 205.311 64.6131 204.927 64.7815C204.543 64.9498 204.124 65.034 203.669 65.034H199.939ZM195.287 65.034L194.321 63.4125H191.274L191.805 62.5H193.781L192.346 60.09L189.422 65.034H188.137L191.841 58.8672C191.906 58.755 191.982 58.6664 192.071 58.6014C192.16 58.5364 192.266 58.504 192.39 58.504C192.514 58.504 192.619 58.5364 192.705 58.6014C192.79 58.6664 192.865 58.755 192.93 58.8672L196.643 65.034H195.287ZM181.563 65.034C181.114 65.034 180.699 64.9498 180.318 64.7815C179.937 64.6131 179.606 64.3827 179.326 64.0903C179.045 63.798 178.826 63.4509 178.67 63.0493C178.513 62.6476 178.435 62.2134 178.435 61.7468C178.435 61.2743 178.513 60.843 178.67 60.4532C178.826 60.0633 179.045 59.7311 179.326 59.4564C179.606 59.1818 179.937 58.9692 180.318 58.8185C180.699 58.6678 181.114 58.5926 181.563 58.5926H185.054V59.7179H181.563C181.273 59.7179 181.006 59.7695 180.761 59.8729C180.516 59.9762 180.305 60.1195 180.127 60.3026C179.95 60.4857 179.812 60.7043 179.711 60.9582C179.611 61.2122 179.56 61.4928 179.56 61.8C179.56 62.1012 179.611 62.3818 179.711 62.6417C179.812 62.9016 179.95 63.1246 180.127 63.3106C180.305 63.4967 180.516 63.6428 180.761 63.7493C181.006 63.8556 181.273 63.9087 181.563 63.9087H185.054V65.034H181.563ZM181.266 66.1308C181.308 66.1292 181.352 66.1239 181.396 66.1149C181.614 66.0715 181.765 65.9751 181.849 65.8257C181.932 65.6766 181.95 65.4837 181.903 65.2473L181.86 65.029C182.046 64.744 182.251 64.476 182.473 64.2274L182.647 65.0987C182.75 65.6135 182.707 66.0282 182.519 66.3427C182.332 66.6575 181.992 66.8639 181.5 66.962C181.309 67.0002 181.125 67.0097 180.949 66.9901C181.039 66.6945 181.145 66.4076 181.266 66.1308ZM169.327 60.3203V65.034H168.255V59.1863C168.255 58.9794 168.306 58.8155 168.41 58.6945C168.513 58.5733 168.653 58.5128 168.831 58.5128C168.913 58.5128 168.993 58.5305 169.07 58.566C169.147 58.6014 169.227 58.6605 169.309 58.7432L173.855 63.253V58.5394H174.926V64.4403C174.926 64.653 174.875 64.8184 174.771 64.9365C174.668 65.0546 174.534 65.1137 174.368 65.1137C174.185 65.1137 174.014 65.034 173.855 64.8744L169.327 60.3203ZM163.63 65.034L162.664 63.4125H159.616L160.148 62.5H162.123L160.688 60.09L157.764 65.034H156.48L160.183 58.8672C160.248 58.755 160.325 58.6664 160.413 58.6014C160.502 58.5364 160.608 58.504 160.732 58.504C160.856 58.504 160.961 58.5364 161.047 58.6014C161.133 58.6664 161.208 58.755 161.273 58.8672L164.985 65.034H163.63ZM147.114 58.5926H148.488L151.411 63.5542L154.327 58.5926H155.62L151.908 64.7593C151.843 64.8715 151.766 64.9601 151.677 65.0251C151.589 65.0901 151.485 65.1226 151.367 65.1226C151.243 65.1226 151.137 65.0901 151.048 65.0251C150.96 64.9601 150.883 64.8715 150.818 64.7593L147.114 58.5926ZM144.97 65.034L144.004 63.4125H140.956L141.488 62.5H143.464L142.028 60.09L139.105 65.034H137.82L141.523 58.8672C141.588 58.755 141.665 58.6664 141.754 58.6014C141.842 58.5364 141.949 58.504 142.073 58.504C142.197 58.504 142.302 58.5364 142.387 58.6014C142.473 58.6664 142.548 58.755 142.613 58.8672L146.326 65.034H144.97ZM125.247 65.034V63.9087H130.076C130.377 63.9087 130.609 63.832 130.772 63.6784C130.934 63.5248 131.015 63.321 131.015 63.067C131.015 62.7894 130.934 62.5811 130.772 62.4424C130.609 62.3035 130.377 62.2342 130.076 62.2342H127.117C126.816 62.2342 126.542 62.1884 126.297 62.0968C126.052 62.0053 125.845 61.8782 125.677 61.7157C125.509 61.5534 125.379 61.3599 125.287 61.1354C125.196 60.911 125.15 60.6658 125.15 60.4C125.15 60.1401 125.193 59.8994 125.278 59.678C125.364 59.4564 125.491 59.266 125.659 59.1065C125.828 58.947 126.036 58.8214 126.284 58.7299C126.532 58.6383 126.816 58.5926 127.134 58.5926H131.76V59.7179H127.134C126.875 59.7179 126.674 59.7872 126.532 59.926C126.39 60.0648 126.319 60.2583 126.319 60.5063C126.319 60.7544 126.392 60.9464 126.536 61.0823C126.681 61.2181 126.877 61.2861 127.126 61.2861H130.076C130.732 61.2861 131.229 61.4397 131.569 61.7468C131.909 62.054 132.079 62.5206 132.079 63.1467C132.079 63.4184 132.037 63.6695 131.954 63.8998C131.872 64.1302 131.748 64.3296 131.582 64.498C131.417 64.6662 131.209 64.7976 130.958 64.8921C130.707 64.9866 130.413 65.034 130.076 65.034H125.247ZM118.576 63.9087C118.871 63.9087 119.143 63.8556 119.391 63.7493C119.639 63.6428 119.853 63.4967 120.033 63.3106C120.213 63.1246 120.353 62.9016 120.454 62.6417C120.554 62.3818 120.604 62.1012 120.604 61.8C120.604 61.4988 120.554 61.2196 120.454 60.9627C120.353 60.7057 120.213 60.4857 120.033 60.3026C119.853 60.1195 119.639 59.9762 119.391 59.8729C119.143 59.7695 118.871 59.7179 118.576 59.7179H117.007C116.718 59.7179 116.45 59.7695 116.205 59.8729C115.96 59.9762 115.749 60.1195 115.572 60.3026C115.395 60.4857 115.256 60.7043 115.155 60.9582C115.055 61.2122 115.005 61.4928 115.005 61.8C115.005 62.1012 115.055 62.3818 115.155 62.6417C115.256 62.9016 115.395 63.1246 115.572 63.3106C115.749 63.4967 115.96 63.6428 116.205 63.7493C116.45 63.8556 116.718 63.9087 117.007 63.9087H118.576ZM117.007 65.034C116.558 65.034 116.143 64.9498 115.762 64.7815C115.381 64.6131 115.051 64.3827 114.77 64.0903C114.489 63.798 114.271 63.4509 114.114 63.0493C113.958 62.6476 113.88 62.2134 113.88 61.7468C113.88 61.2743 113.958 60.843 114.114 60.4532C114.271 60.0633 114.489 59.7311 114.77 59.4564C115.051 59.1818 115.381 58.9692 115.762 58.8185C116.143 58.6678 116.558 58.5926 117.007 58.5926H118.576C119.042 58.5926 119.469 58.6694 119.856 58.823C120.243 58.9765 120.575 59.1921 120.853 59.4697C121.13 59.7474 121.346 60.0796 121.499 60.4665C121.653 60.8534 121.73 61.2802 121.73 61.7468C121.73 62.2134 121.651 62.6476 121.495 63.0493C121.338 63.4509 121.12 63.798 120.839 64.0903C120.559 64.3827 120.226 64.6131 119.843 64.7815C119.459 64.9498 119.036 65.034 118.576 65.034H117.007ZM103.664 65.034V63.9087H108.493C108.794 63.9087 109.026 63.832 109.188 63.6784C109.351 63.5248 109.432 63.321 109.432 63.067C109.432 62.7894 109.351 62.5811 109.188 62.4424C109.026 62.3035 108.794 62.2342 108.493 62.2342H105.533C105.232 62.2342 104.959 62.1884 104.714 62.0968C104.469 62.0053 104.262 61.8782 104.094 61.7157C103.925 61.5534 103.795 61.3599 103.704 61.1354C103.612 60.911 103.566 60.6658 103.566 60.4C103.566 60.1401 103.609 59.8994 103.695 59.678C103.78 59.4564 103.907 59.266 104.076 59.1065C104.244 58.947 104.452 58.8214 104.7 58.7299C104.949 58.6383 105.232 58.5926 105.551 58.5926H110.176V59.7179H105.551C105.291 59.7179 105.09 59.7872 104.949 59.926C104.807 60.0648 104.736 60.2583 104.736 60.5063C104.736 60.7544 104.808 60.9464 104.953 61.0823C105.098 61.2181 105.294 61.2861 105.542 61.2861H108.493C109.148 61.2861 109.646 61.4397 109.985 61.7468C110.325 62.054 110.495 62.5206 110.495 63.1467C110.495 63.4184 110.454 63.6695 110.371 63.8998C110.288 64.1302 110.164 64.3296 109.999 64.498C109.833 64.6662 109.625 64.7976 109.374 64.8921C109.123 64.9866 108.829 65.034 108.493 65.034H103.664ZM98.8793 65.034L97.249 63.2442H94.839V62.2519H97.5237C97.9312 62.2519 98.2384 62.1411 98.4451 61.9196C98.6519 61.6981 98.7553 61.3776 98.7553 60.9582C98.7553 60.5389 98.6475 60.2273 98.4319 60.0236C98.2162 59.8197 97.9135 59.7179 97.5237 59.7179H94.0151V65.034H92.8986V58.5926H97.5237C97.8899 58.5926 98.2178 58.6472 98.5072 58.7564C98.7966 58.8658 99.0417 59.0223 99.2425 59.2261C99.4433 59.4299 99.597 59.6765 99.7033 59.9659C99.8096 60.2554 99.8628 60.5802 99.8628 60.9405C99.8628 61.478 99.7461 61.9285 99.5128 62.2917C99.2795 62.655 98.9531 62.9163 98.5337 63.0758L100.474 65.034H98.8793ZM88.1762 58.5926H89.2748V62.1898C89.2748 62.686 89.2098 63.1187 89.0799 63.4878C88.9499 63.857 88.7462 64.1627 88.4686 64.4049C88.1909 64.6471 87.832 64.8273 87.392 64.9454C86.9519 65.0634 86.4189 65.1226 85.7928 65.1226C85.1725 65.1226 84.6424 65.0634 84.2024 64.9454C83.7623 64.8273 83.4034 64.6471 83.1258 64.4049C82.8482 64.1627 82.6444 63.857 82.5144 63.4878C82.3845 63.1187 82.3195 62.686 82.3195 62.1898V58.5926H83.4802V62.1898C83.4802 62.5147 83.5201 62.7923 83.5999 63.0227C83.6796 63.253 83.8095 63.442 83.9897 63.5897C84.1698 63.7375 84.4106 63.8452 84.7118 63.9131C85.013 63.9811 85.3851 64.0151 85.8282 64.0151C86.2712 64.0151 86.6433 63.9811 86.9446 63.9131C87.2458 63.8452 87.4865 63.7375 87.6666 63.5897C87.8468 63.442 87.9768 63.253 88.0566 63.0227C88.1363 62.7923 88.1762 62.5147 88.1762 62.1898V58.5926ZM75.4086 65.034C74.9597 65.034 74.5447 64.9498 74.1638 64.7815C73.7827 64.6131 73.452 64.3827 73.1714 64.0903C72.8907 63.798 72.6722 63.4509 72.5157 63.0493C72.3592 62.6476 72.2809 62.2134 72.2809 61.7468C72.2809 61.2743 72.3592 60.843 72.5157 60.4532C72.6722 60.0633 72.8907 59.7311 73.1714 59.4564C73.452 59.1818 73.7827 58.9692 74.1638 58.8185C74.5447 58.6678 74.9597 58.5926 75.4086 58.5926H78.8995V59.7179H75.4086C75.1192 59.7179 74.8518 59.7695 74.6068 59.8729C74.3616 59.9762 74.1504 60.1195 73.9732 60.3026C73.796 60.4857 73.6573 60.7043 73.5568 60.9582C73.4564 61.2122 73.4062 61.4928 73.4062 61.8C73.4062 62.1012 73.4564 62.3818 73.5568 62.6417C73.6573 62.9016 73.796 63.1246 73.9732 63.3106C74.1504 63.4967 74.3616 63.6428 74.6068 63.7493C74.8518 63.8556 75.1192 63.9087 75.4086 63.9087H78.8995V65.034H75.4086Z" fill="white"/>
<defs>
<radialGradient id="paint0_radial_8_395" cx="0" cy="0" r="1" gradientUnits="userSpaceOnUse" gradientTransform="translate(47.0145 28.14) scale(23.1761 18.2602)">
<stop stop-color="#F1C6C6"/>
<stop offset="1" stop-color="#E58947"/>
</radialGradient>
<radialGradient id="paint1_radial_8_395" cx="0" cy="0" r="1" gradientUnits="userSpaceOnUse" gradientTransform="translate(61.0276 15.9375) scale(22.3288 16.4062)">
<stop stop-color="#F1C6C6"/>
<stop offset="1" stop-color="#F49D6E"/>
</radialGradient>
</defs>
</svg>
