<svg width="297" height="56" viewBox="0 0 297 56" fill="none" xmlns="http://www.w3.org/2000/svg">
<path d="M93.8125 35.0703C93.8125 34.4609 93.7188 33.9141 93.5312 33.4297C93.3594 32.9297 93.0312 32.4766 92.5469 32.0703C92.0625 31.6484 91.3828 31.2344 90.5078 30.8281C89.6328 30.4219 88.5 30 87.1094 29.5625C85.5625 29.0625 84.0938 28.5 82.7031 27.875C81.3281 27.25 80.1094 26.5234 79.0469 25.6953C78 24.8516 77.1719 23.875 76.5625 22.7656C75.9688 21.6562 75.6719 20.3672 75.6719 18.8984C75.6719 17.4766 75.9844 16.1875 76.6094 15.0312C77.2344 13.8594 78.1094 12.8594 79.2344 12.0312C80.3594 11.1875 81.6875 10.5391 83.2188 10.0859C84.7656 9.63281 86.4609 9.40625 88.3047 9.40625C90.8203 9.40625 93.0156 9.85937 94.8906 10.7656C96.7656 11.6719 98.2188 12.9141 99.25 14.4922C100.297 16.0703 100.82 17.875 100.82 19.9062H93.8359C93.8359 18.9062 93.625 18.0312 93.2031 17.2812C92.7969 16.5156 92.1719 15.9141 91.3281 15.4766C90.5 15.0391 89.4531 14.8203 88.1875 14.8203C86.9688 14.8203 85.9531 15.0078 85.1406 15.3828C84.3281 15.7422 83.7188 16.2344 83.3125 16.8594C82.9062 17.4688 82.7031 18.1562 82.7031 18.9219C82.7031 19.5 82.8438 20.0234 83.125 20.4922C83.4219 20.9609 83.8594 21.3984 84.4375 21.8047C85.0156 22.2109 85.7266 22.5938 86.5703 22.9531C87.4141 23.3125 88.3906 23.6641 89.5 24.0078C91.3594 24.5703 92.9922 25.2031 94.3984 25.9062C95.8203 26.6094 97.0078 27.3984 97.9609 28.2734C98.9141 29.1484 99.6328 30.1406 100.117 31.25C100.602 32.3594 100.844 33.6172 100.844 35.0234C100.844 36.5078 100.555 37.8359 99.9766 39.0078C99.3984 40.1797 98.5625 41.1719 97.4688 41.9844C96.375 42.7969 95.0703 43.4141 93.5547 43.8359C92.0391 44.2578 90.3438 44.4688 88.4688 44.4688C86.7812 44.4688 85.1172 44.25 83.4766 43.8125C81.8359 43.3594 80.3438 42.6797 79 41.7734C77.6719 40.8672 76.6094 39.7109 75.8125 38.3047C75.0156 36.8984 74.6172 35.2344 74.6172 33.3125H81.6719C81.6719 34.375 81.8359 35.2734 82.1641 36.0078C82.4922 36.7422 82.9531 37.3359 83.5469 37.7891C84.1562 38.2422 84.875 38.5703 85.7031 38.7734C86.5469 38.9766 87.4688 39.0781 88.4688 39.0781C89.6875 39.0781 90.6875 38.9062 91.4688 38.5625C92.2656 38.2188 92.8516 37.7422 93.2266 37.1328C93.6172 36.5234 93.8125 35.8359 93.8125 35.0703ZM104.125 31.5781V31.0859C104.125 29.2266 104.391 27.5156 104.922 25.9531C105.453 24.375 106.227 23.0078 107.242 21.8516C108.258 20.6953 109.508 19.7969 110.992 19.1562C112.477 18.5 114.18 18.1719 116.102 18.1719C118.023 18.1719 119.734 18.5 121.234 19.1562C122.734 19.7969 123.992 20.6953 125.008 21.8516C126.039 23.0078 126.82 24.375 127.352 25.9531C127.883 27.5156 128.148 29.2266 128.148 31.0859V31.5781C128.148 33.4219 127.883 35.1328 127.352 36.7109C126.82 38.2734 126.039 39.6406 125.008 40.8125C123.992 41.9688 122.742 42.8672 121.258 43.5078C119.773 44.1484 118.07 44.4688 116.148 44.4688C114.227 44.4688 112.516 44.1484 111.016 43.5078C109.531 42.8672 108.273 41.9688 107.242 40.8125C106.227 39.6406 105.453 38.2734 104.922 36.7109C104.391 35.1328 104.125 33.4219 104.125 31.5781ZM110.875 31.0859V31.5781C110.875 32.6406 110.969 33.6328 111.156 34.5547C111.344 35.4766 111.641 36.2891 112.047 36.9922C112.469 37.6797 113.016 38.2188 113.688 38.6094C114.359 39 115.18 39.1953 116.148 39.1953C117.086 39.1953 117.891 39 118.562 38.6094C119.234 38.2188 119.773 37.6797 120.18 36.9922C120.586 36.2891 120.883 35.4766 121.07 34.5547C121.273 33.6328 121.375 32.6406 121.375 31.5781V31.0859C121.375 30.0547 121.273 29.0859 121.07 28.1797C120.883 27.2578 120.578 26.4453 120.156 25.7422C119.75 25.0234 119.211 24.4609 118.539 24.0547C117.867 23.6484 117.055 23.4453 116.102 23.4453C115.148 23.4453 114.336 23.6484 113.664 24.0547C113.008 24.4609 112.469 25.0234 112.047 25.7422C111.641 26.4453 111.344 27.2578 111.156 28.1797C110.969 29.0859 110.875 30.0547 110.875 31.0859ZM140.898 44H134.102V16.3906C134.102 14.4688 134.477 12.8516 135.227 11.5391C135.992 10.2109 137.062 9.21094 138.438 8.53906C139.828 7.85156 141.477 7.50781 143.383 7.50781C144.008 7.50781 144.609 7.55469 145.188 7.64844C145.766 7.72656 146.328 7.82813 146.875 7.95312L146.805 13.0391C146.508 12.9609 146.195 12.9062 145.867 12.875C145.539 12.8438 145.156 12.8281 144.719 12.8281C143.906 12.8281 143.211 12.9688 142.633 13.25C142.07 13.5156 141.641 13.9141 141.344 14.4453C141.047 14.9766 140.898 15.625 140.898 16.3906V44ZM145.961 18.6406V23.4219H130.328V18.6406H145.961ZM161.922 18.6406V23.4219H147.156V18.6406H161.922ZM150.812 12.3828H157.562V36.3594C157.562 37.0938 157.656 37.6562 157.844 38.0469C158.047 38.4375 158.344 38.7109 158.734 38.8672C159.125 39.0078 159.617 39.0781 160.211 39.0781C160.633 39.0781 161.008 39.0625 161.336 39.0312C161.68 38.9844 161.969 38.9375 162.203 38.8906L162.227 43.8594C161.648 44.0469 161.023 44.1953 160.352 44.3047C159.68 44.4141 158.938 44.4688 158.125 44.4688C156.641 44.4688 155.344 44.2266 154.234 43.7422C153.141 43.2422 152.297 42.4453 151.703 41.3516C151.109 40.2578 150.812 38.8203 150.812 37.0391V12.3828ZM172.516 23.8906V44H165.742V18.6406H172.094L172.516 23.8906ZM171.578 30.4297H169.703C169.703 28.6641 169.914 27.0391 170.336 25.5547C170.773 24.0547 171.406 22.7578 172.234 21.6641C173.078 20.5547 174.117 19.6953 175.352 19.0859C176.586 18.4766 178.016 18.1719 179.641 18.1719C180.766 18.1719 181.797 18.3438 182.734 18.6875C183.672 19.0156 184.477 19.5391 185.148 20.2578C185.836 20.9609 186.367 21.8828 186.742 23.0234C187.117 24.1484 187.305 25.5 187.305 27.0781V44H180.555V27.8281C180.555 26.6719 180.398 25.7812 180.086 25.1562C179.773 24.5312 179.328 24.0938 178.75 23.8438C178.188 23.5938 177.508 23.4688 176.711 23.4688C175.836 23.4688 175.07 23.6484 174.414 24.0078C173.773 24.3672 173.242 24.8672 172.82 25.5078C172.398 26.1328 172.086 26.8672 171.883 27.7109C171.68 28.5547 171.578 29.4609 171.578 30.4297ZM186.672 29.6562L184.258 29.9609C184.258 28.3047 184.461 26.7656 184.867 25.3438C185.289 23.9219 185.906 22.6719 186.719 21.5938C187.547 20.5156 188.57 19.6797 189.789 19.0859C191.008 18.4766 192.414 18.1719 194.008 18.1719C195.227 18.1719 196.336 18.3516 197.336 18.7109C198.336 19.0547 199.188 19.6094 199.891 20.375C200.609 21.125 201.156 22.1094 201.531 23.3281C201.922 24.5469 202.117 26.0391 202.117 27.8047V44H195.344V27.8047C195.344 26.6328 195.188 25.7422 194.875 25.1328C194.578 24.5078 194.141 24.0781 193.562 23.8438C193 23.5938 192.328 23.4688 191.547 23.4688C190.734 23.4688 190.023 23.6328 189.414 23.9609C188.805 24.2734 188.297 24.7109 187.891 25.2734C187.484 25.8359 187.18 26.4922 186.977 27.2422C186.773 27.9766 186.672 28.7812 186.672 29.6562ZM219.016 44.4688C217.047 44.4688 215.281 44.1562 213.719 43.5312C212.156 42.8906 210.828 42.0078 209.734 40.8828C208.656 39.7578 207.828 38.4531 207.25 36.9688C206.672 35.4688 206.383 33.875 206.383 32.1875V31.25C206.383 29.3281 206.656 27.5703 207.203 25.9766C207.75 24.3828 208.531 23 209.547 21.8281C210.578 20.6562 211.828 19.7578 213.297 19.1328C214.766 18.4922 216.422 18.1719 218.266 18.1719C220.062 18.1719 221.656 18.4688 223.047 19.0625C224.438 19.6562 225.602 20.5 226.539 21.5938C227.492 22.6875 228.211 24 228.695 25.5312C229.18 27.0469 229.422 28.7344 229.422 30.5938V33.4062H209.266V28.9062H222.789V28.3906C222.789 27.4531 222.617 26.6172 222.273 25.8828C221.945 25.1328 221.445 24.5391 220.773 24.1016C220.102 23.6641 219.242 23.4453 218.195 23.4453C217.305 23.4453 216.539 23.6406 215.898 24.0312C215.258 24.4219 214.734 24.9688 214.328 25.6719C213.938 26.375 213.641 27.2031 213.438 28.1562C213.25 29.0938 213.156 30.125 213.156 31.25V32.1875C213.156 33.2031 213.297 34.1406 213.578 35C213.875 35.8594 214.289 36.6016 214.82 37.2266C215.367 37.8516 216.023 38.3359 216.789 38.6797C217.57 39.0234 218.453 39.1953 219.438 39.1953C220.656 39.1953 221.789 38.9609 222.836 38.4922C223.898 38.0078 224.812 37.2812 225.578 36.3125L228.859 39.875C228.328 40.6406 227.602 41.375 226.68 42.0781C225.773 42.7812 224.68 43.3594 223.398 43.8125C222.117 44.25 220.656 44.4688 219.016 44.4688ZM248.242 38.4688V8H255.039V44H248.922L248.242 38.4688ZM232.211 31.625V31.1328C232.211 29.1953 232.43 27.4375 232.867 25.8594C233.305 24.2656 233.945 22.8984 234.789 21.7578C235.633 20.6172 236.672 19.7344 237.906 19.1094C239.141 18.4844 240.547 18.1719 242.125 18.1719C243.609 18.1719 244.906 18.4844 246.016 19.1094C247.141 19.7344 248.094 20.625 248.875 21.7812C249.672 22.9219 250.312 24.2734 250.797 25.8359C251.281 27.3828 251.633 29.0781 251.852 30.9219V32C251.633 33.7656 251.281 35.4062 250.797 36.9219C250.312 38.4375 249.672 39.7656 248.875 40.9062C248.094 42.0312 247.141 42.9062 246.016 43.5312C244.891 44.1562 243.578 44.4688 242.078 44.4688C240.5 44.4688 239.094 44.1484 237.859 43.5078C236.641 42.8672 235.609 41.9688 234.766 40.8125C233.938 39.6562 233.305 38.2969 232.867 36.7344C232.43 35.1719 232.211 33.4688 232.211 31.625ZM238.961 31.1328V31.625C238.961 32.6719 239.039 33.6484 239.195 34.5547C239.367 35.4609 239.641 36.2656 240.016 36.9688C240.406 37.6562 240.906 38.1953 241.516 38.5859C242.141 38.9609 242.898 39.1484 243.789 39.1484C244.945 39.1484 245.898 38.8906 246.648 38.375C247.398 37.8438 247.969 37.1172 248.359 36.1953C248.766 35.2734 249 34.2109 249.062 33.0078V29.9375C249.016 28.9531 248.875 28.0703 248.641 27.2891C248.422 26.4922 248.094 25.8125 247.656 25.25C247.234 24.6875 246.703 24.25 246.062 23.9375C245.438 23.625 244.695 23.4688 243.836 23.4688C242.961 23.4688 242.211 23.6719 241.586 24.0781C240.961 24.4688 240.453 25.0078 240.062 25.6953C239.688 26.3828 239.406 27.1953 239.219 28.1328C239.047 29.0547 238.961 30.0547 238.961 31.1328ZM267.438 18.6406V44H260.664V18.6406H267.438ZM260.242 12.0312C260.242 11.0469 260.586 10.2344 261.273 9.59375C261.961 8.95313 262.883 8.63281 264.039 8.63281C265.18 8.63281 266.094 8.95313 266.781 9.59375C267.484 10.2344 267.836 11.0469 267.836 12.0312C267.836 13.0156 267.484 13.8281 266.781 14.4688C266.094 15.1094 265.18 15.4297 264.039 15.4297C262.883 15.4297 261.961 15.1094 261.273 14.4688C260.586 13.8281 260.242 13.0156 260.242 12.0312ZM286.703 38.2812V26.9844C286.703 26.1719 286.57 25.4766 286.305 24.8984C286.039 24.3047 285.625 23.8438 285.062 23.5156C284.516 23.1875 283.805 23.0234 282.93 23.0234C282.18 23.0234 281.531 23.1562 280.984 23.4219C280.438 23.6719 280.016 24.0391 279.719 24.5234C279.422 24.9922 279.273 25.5469 279.273 26.1875H272.523C272.523 25.1094 272.773 24.0859 273.273 23.1172C273.773 22.1484 274.5 21.2969 275.453 20.5625C276.406 19.8125 277.539 19.2266 278.852 18.8047C280.18 18.3828 281.664 18.1719 283.305 18.1719C285.273 18.1719 287.023 18.5 288.555 19.1562C290.086 19.8125 291.289 20.7969 292.164 22.1094C293.055 23.4219 293.5 25.0625 293.5 27.0312V37.8828C293.5 39.2734 293.586 40.4141 293.758 41.3047C293.93 42.1797 294.18 42.9453 294.508 43.6016V44H287.688C287.359 43.3125 287.109 42.4531 286.938 41.4219C286.781 40.375 286.703 39.3281 286.703 38.2812ZM287.594 28.5547L287.641 32.375H283.867C282.977 32.375 282.203 32.4766 281.547 32.6797C280.891 32.8828 280.352 33.1719 279.93 33.5469C279.508 33.9062 279.195 34.3281 278.992 34.8125C278.805 35.2969 278.711 35.8281 278.711 36.4062C278.711 36.9844 278.844 37.5078 279.109 37.9766C279.375 38.4297 279.758 38.7891 280.258 39.0547C280.758 39.3047 281.344 39.4297 282.016 39.4297C283.031 39.4297 283.914 39.2266 284.664 38.8203C285.414 38.4141 285.992 37.9141 286.398 37.3203C286.82 36.7266 287.039 36.1641 287.055 35.6328L288.836 38.4922C288.586 39.1328 288.242 39.7969 287.805 40.4844C287.383 41.1719 286.844 41.8203 286.188 42.4297C285.531 43.0234 284.742 43.5156 283.82 43.9062C282.898 44.2812 281.805 44.4688 280.539 44.4688C278.93 44.4688 277.469 44.1484 276.156 43.5078C274.859 42.8516 273.828 41.9531 273.062 40.8125C272.312 39.6562 271.938 38.3438 271.938 36.875C271.938 35.5469 272.188 34.3672 272.688 33.3359C273.188 32.3047 273.922 31.4375 274.891 30.7344C275.875 30.0156 277.102 29.4766 278.57 29.1172C280.039 28.7422 281.742 28.5547 283.68 28.5547H287.594Z" fill="white"/>
<path d="M25.0175 41.7445C23.5335 41.7579 22.0633 41.4588 20.7025 40.8666C19.3417 40.2744 18.1208 39.4024 17.1191 38.3073C14.7797 35.7528 13.6351 32.048 13.979 28.1428C14.2647 24.6618 15.723 21.3808 18.1152 18.8361C19.2567 17.6011 20.6384 16.6123 22.1756 15.9304C23.7128 15.2485 25.3732 14.8878 27.0548 14.8705C28.6127 14.8636 30.1545 15.1848 31.5801 15.8132C33.0056 16.4415 34.2829 17.3629 35.3289 18.5175C36.521 19.8657 37.4206 21.4465 37.971 23.1599C38.5214 24.8733 38.7107 26.6823 38.5268 28.4725V28.4726C38.1766 32.4413 36.635 35.8119 34.0686 38.2199C31.6116 40.5063 28.3737 41.7672 25.0175 41.7445ZM27.0548 18.6271C22.307 18.6271 18.2071 22.9516 17.7211 28.4722C17.4694 31.3307 18.2597 33.9907 19.8895 35.7702C20.5372 36.4835 21.3297 37.0503 22.2141 37.4328C23.0984 37.8152 24.0542 38.0045 25.0175 37.988C29.4468 37.988 34.1846 34.9436 34.7847 28.1424V28.1425C34.923 26.8713 34.7966 25.5853 34.4134 24.3654C34.0303 23.1455 33.3987 22.0182 32.5584 21.0544C31.8628 20.2862 31.0132 19.6731 30.065 19.2549C29.1168 18.8367 28.0911 18.6227 27.0548 18.6271Z" fill="#F49D6E"/>
<path d="M42.8711 41.7939C42.4523 41.7948 42.0343 41.759 41.6219 41.6868C40.5374 41.4996 39.5025 41.0938 38.5799 40.494C37.6573 39.8942 36.8663 39.113 36.2552 38.1978C34.9207 36.2108 34.3573 33.5482 34.6257 30.4978L35.8509 16.5911C35.8956 16.0956 36.135 15.638 36.5166 15.3188C36.8983 14.9997 37.391 14.8449 37.8866 14.8886C38.3822 14.9323 38.8402 15.1708 39.1601 15.5518C39.4801 15.9328 39.6357 16.4252 39.593 16.9208L38.3678 30.8275C38.0169 34.8147 39.4784 37.4916 42.2775 37.9879C43.2383 38.1581 44.9645 37.894 46.6676 36.589C48.4072 35.2562 50.5834 32.5016 51.0723 26.9479C51.6339 20.5763 50.0056 15.1065 46.3638 11.1296C42.5457 6.96032 36.7661 4.75659 29.6497 4.75659C16.5689 4.75659 4.99553 15.395 3.85065 28.4713C3.62663 30.9315 3.80367 33.4117 4.3749 35.8151C4.49152 36.2994 4.41096 36.8102 4.15097 37.2351C3.89098 37.6601 3.47286 37.9643 2.98855 38.0809C2.50424 38.1976 1.99342 38.117 1.56849 37.857C1.14357 37.597 0.839332 37.1789 0.722708 36.6946C0.0562554 33.8964 -0.151206 31.0085 0.108387 28.1437C0.856491 20.7876 4.27691 13.9615 9.72153 8.95878C15.1662 3.95605 22.2567 1.12426 29.6497 1C37.8479 1 44.5856 3.62547 49.1342 8.59261C53.4443 13.2991 55.4615 19.9349 54.8145 27.2775C54.2057 34.1923 51.2906 37.7793 48.9524 39.5709C47.2185 40.9492 45.085 41.7291 42.8711 41.7939Z" fill="#F49D6E"/>
<path d="M25.1678 55.615C19.0027 55.6642 13.0308 53.4658 8.36906 49.431C8.18352 49.2682 8.03185 49.0704 7.9228 48.849C7.81374 48.6276 7.74943 48.3868 7.73348 48.1405C7.71753 47.8942 7.75028 47.6471 7.82987 47.4134C7.90947 47.1798 8.03434 46.9641 8.19735 46.7788C8.36035 46.5934 8.55828 46.442 8.77984 46.3332C9.0014 46.2244 9.24224 46.1603 9.48858 46.1446C9.73492 46.129 9.98193 46.162 10.2155 46.2419C10.4491 46.3217 10.6646 46.4468 10.8498 46.61C14.8259 50.0416 19.9159 51.9073 25.1678 51.8584C29.3791 51.8584 31.9273 51.5772 35.8949 49.9101C36.1224 49.8144 36.3664 49.7645 36.6131 49.7632C36.8598 49.7619 37.1044 49.8092 37.3328 49.9024C37.5613 49.9956 37.7691 50.1329 37.9445 50.3065C38.1198 50.48 38.2593 50.6864 38.3548 50.9139C38.4504 51.1413 38.5002 51.3854 38.5014 51.6321C38.5027 51.8788 38.4553 52.1234 38.3619 52.3517C38.2686 52.5801 38.1313 52.7879 37.9576 52.9632C37.784 53.1385 37.5776 53.2779 37.3501 53.3733C32.8133 55.2796 29.807 55.615 25.1678 55.615Z" fill="#F49D6E"/>
</svg>
